<?xml version="1.0" standalone="no"?>
<!DOCTYPE svg PUBLIC "-//W3C//DTD SVG 1.1//EN" "http://www.w3.org/Graphics/SVG/1.1/DTD/svg11.dtd">

<svg width="135" height="50" viewBox="0 0 135 50" 
  xmlns="http://www.w3.org/2000/svg"
  xmlns:xlink="http://www.w3.org/1999/xlink">


<polyline points="0.0, 48.13494552322516 0.7988165680473372, 48.74382501980607 1.5976331360946745, 46.078966091065574 2.396449704142012, 45.32667816307836 3.195266272189349, 44.582524393584876 3.994082840236686, 45.734259974363326 4.792899408284024, 46.40151886749464 5.591715976331361, 45.15543279057104 6.390532544378698, 46.05783190795229 7.189349112426036, 44.75551997578023 7.988165680473372, 45.55860322864582 8.78698224852071, 47.58327180381477 9.585798816568047, 46.1561245077869 10.384615384615385, 43.05472240988754 11.183431952662723, 41.57343216841587 11.982248520710058, 44.33152333915986 12.781065088757396, 44.08596962199877 13.579881656804734, 44.96132197410883 14.378698224852071, 46.26031881775936 15.177514792899409, 47.191310064952106 15.976331360946745, 47.36256457548735 16.775147928994084, 47.65721114503243 17.57396449704142, 46.958380346118346 18.37278106508876, 46.983091695544104 19.171597633136095, 47.599148382403925 19.970414201183434, 49.80440618915174 20.76923076923077, 50.0 21.56804733727811, 48.956104186142014 22.366863905325445, 48.79158420332714 23.16568047337278, 48.502698699443414 23.964497041420117, 48.34111747040494 24.763313609467456, 48.11849124561938 25.562130177514792, 46.3724054881003 26.36094674556213, 46.19943195548024 27.159763313609467, 44.380884358758294 27.958579881656807, 38.177077625650604 28.757396449704142, 37.95329816189457 29.55621301775148, 39.76735412436762 30.355029585798817, 40.34331375885289 31.153846153846157, 41.88735316893968 31.95266272189349, 40.238645574634205 32.751479289940825, 40.31707075615156 33.55029585798817, 40.78581519507911 34.349112426035504, 39.50708818238867 35.14792899408284, 41.5276479478634 35.94674556213018, 41.243109280930376 36.74556213017752, 39.0547484388451 37.54437869822485, 39.795158273814565 38.34319526627219, 38.60993836562919 39.142011834319526, 37.03735980995885 39.94082840236687, 36.434726354854355 40.7396449704142, 38.014550025976604 41.53846153846154, 38.63086511102124 42.337278106508876, 38.69352552055374 43.13609467455622, 38.673211382742046 43.93491124260355, 38.05723215363116 44.73372781065089, 40.62938541337289 45.532544378698226, 40.293736935044656 46.33136094674556, 41.33009340557949 47.1301775147929, 41.2768988069861 47.928994082840234, 44.32341916111928 48.72781065088758, 43.72931614387796 49.52662721893491, 43.02712186386941 50.32544378698225, 44.25905434197499 51.124260355029584, 43.38463111222738 51.92307692307693, 43.49635200807457 52.72189349112426, 46.14859557702875 53.5207100591716, 46.10331200830459 54.319526627218934, 43.591017822920016 55.11834319526627, 41.59042921395142 55.91715976331361, 39.332419250559745 56.71597633136094, 39.75734316541481 57.514792899408285, 32.18637754956645 58.31360946745562, 25.70159473696272 59.11242603550296, 25.71699767884199 59.91124260355029, 26.882282538142526 60.710059171597635, 25.800978599115737 61.50887573964497, 26.772643778599527 62.307692307692314, 28.349676261223845 63.10650887573964, 27.90218002238351 63.90532544378698, 27.76839600496653 64.70414201183432, 28.506261579354504 65.50295857988165, 24.97245619454911 66.30177514792899, 27.53595544245983 67.10059171597634, 29.944226160225195 67.89940828402366, 31.142970747969954 68.69822485207101, 35.353308703448725 69.49704142011834, 36.499955408124066 70.29585798816568, 33.78825472252541 71.09467455621302, 32.656476739331254 71.89349112426036, 24.25965235451518 72.6923076923077, 24.148665738738778 73.49112426035504, 28.18344845904908 74.28994082840237, 28.637775523759906 75.0887573964497, 31.11014011858673 75.88757396449704, 30.77028916824784 76.68639053254438, 29.09935949260169 77.48520710059172, 32.384276524273346 78.28402366863905, 32.89883886264138 79.0828402366864, 31.42316646230553 79.88165680473374, 30.697618760324445 80.68047337278107, 29.19133033566229 81.4792899408284, 29.441939194732775 82.27810650887574, 27.220324566747824 83.07692307692308, 27.48177088737919 83.87573964497041, 22.471779027118725 84.67455621301775, 14.260707729728944 85.4733727810651, 11.969790732058003 86.27218934911244, 11.764046886075832 87.07100591715975, 10.530842582442313 87.8698224852071, 9.820244836423466 88.66863905325444, 12.644255048496966 89.46745562130178, 6.947090247801295 90.26627218934911, 9.59827421780719 91.06508875739645, 10.905159838924297 91.8639053254438, 16.040426928831362 92.66272189349112, 12.115553957523979 93.46153846153845, 9.884387170933003 94.2603550295858, 9.929800092613517 95.05917159763314, 10.609851775585827 95.85798816568047, 9.011323224300929 96.65680473372781, 5.255580053235997 97.45562130177515, 8.490050448757177 98.2544378698225, 10.163488955558348 99.05325443786982, 8.339464609621889 99.85207100591715, 6.697734547130997 100.6508875739645, 6.187062866262675 101.44970414201183, 5.16009723137406 102.24852071005917, 3.706856495657971 103.04733727810651, 1.8745395605952175 103.84615384615385, 0.0 104.64497041420118, 5.8490677971733085 105.44378698224853, 7.256090944689214 106.24260355029585, 5.941380516092825 107.0414201183432, 6.64466381521639 107.84023668639053, 13.37767485392536 108.63905325443787, 7.494949479112768 109.43786982248521, 10.944390410292863 110.23668639053254, 12.971373155571472 111.03550295857988, 13.4232664685619 111.83431952662723, 12.181365183206088 112.63313609467457, 17.79136918285423 113.43195266272188, 18.93972463480878 114.23076923076923, 17.01805476725519 115.02958579881657, 17.2549431173357 115.82840236686391, 18.183108705017474 116.62721893491124, 16.21672771950369 117.42603550295858, 17.61259460756829 118.22485207100593, 16.06686390790913 119.02366863905324, 16.955500136226036 119.82248520710058, 21.259469783670013 120.62130177514793, 18.392033340774578 121.42011834319527, 19.599403174585017 122.2189349112426, 22.481309629543915 123.01775147928994, 20.762227188350412 123.81656804733728, 15.627435154304703 124.61538461538463, 17.462315291743668 125.41420118343194, 17.723468655717557 126.21301775147928, 13.623656363195966 127.01183431952663, 12.301657615871015 127.81065088757396, 12.969834854889836 128.60946745562129, 15.728181208942784 129.40828402366864, 13.815118497262278 130.20710059171597, 12.078117915055877 131.0059171597633, 14.190305941606837 131.80473372781066, 14.899078557138623 132.60355029585799, 16.747472476938725 133.40236686390534, 17.059291285865445 134.20118343195267, 8.538313815448042" fill="none" stroke="#57bd0f" stroke-width="1.25"/>

</svg>